<svg xmlns="http://www.w3.org/2000/svg" width="256px" height="256px">
  <g id="outline" fill="#000000">
   <path d="M27.5 84.271A13.228 13.228 0 0 0 14.271 97.5l-.002 42.592c0 31.332 0 69.782.002 77.156.004 14.63 13.225 14.48 13.229 14.48h20A13.228 13.228 0 0 0 60.729 218.5v-88.771H77.27V218.5A13.228 13.228 0 0 0 90.5 231.729h22a13.228 13.228 0 0 0 13.229-13.229v-88.771h15.542V218.5a13.228 13.228 0 0 0 13.229 13.229h21a13.228 13.228 0 0 0 13.229-13.229v-121A13.228 13.228 0 0 0 175.5 84.271ZM208.5 84.271A13.228 13.228 0 0 0 195.271 97.5v121a13.228 13.228 0 0 0 13.229 13.229h20a13.228 13.228 0 0 0 13.229-13.229v-121A13.228 13.228 0 0 0 228.5 84.271Z"/>
   <path d="M208.5 24.271A13.228 13.228 0 0 0 195.271 37.5v35A13.228 13.228 0 0 0 208.5 85.729h20A13.228 13.228 0 0 0 241.729 72.5v-35A13.228 13.228 0 0 0 228.5 24.271Z"/>
 </g>
  <path fill="#84cc16" d="M27.5 97.5h148v121h-21v-102h-42v102h-22v-102h-43v102h-20c-.003 0 0-121 0-121zM208.5 97.5h20v121h-20v-121zM208.5 37.5v35h20v-35h-20z"/>
</svg>

